HIERARCHY
ROOT root
{
	OFFSET 0.000000 0.000000 0.000000
	CHANNELS 6 Xposition Yposition Zposition Zrotation Yrotation Xrotation
	JOINT lhip
	{
		OFFSET 0.058581 -0.082280 -0.017664
		CHANNELS 3 Zrotation Yrotation Xrotation
		JOINT lknee
		{
			OFFSET 0.043451 -0.386469 0.008037
			CHANNELS 3 Zrotation Yrotation Xrotation
			JOINT lankle
			{
				OFFSET -0.014790 -0.426874 -0.037428
				CHANNELS 3 Zrotation Yrotation Xrotation
				JOINT ltoe
				{
					OFFSET 0.041054 -0.060286 0.122042
					CHANNELS 3 Zrotation Yrotation Xrotation
					End Site
					{
						OFFSET 0.000000 0.000000 0.000000
					}
				}
			}
		}
	}
	JOINT rhip
	{
		OFFSET -0.060310 -0.090513 -0.013543
		CHANNELS 3 Zrotation Yrotation Xrotation
		JOINT rknee
		{
			OFFSET -0.043257 -0.383688 -0.004843
			CHANNELS 3 Zrotation Yrotation Xrotation
			JOINT rankle
			{
				OFFSET 0.019056 -0.420046 -0.034562
				CHANNELS 3 Zrotation Yrotation Xrotation
				JOINT rtoe
				{
					OFFSET -0.034840 -0.062106 0.130323
					CHANNELS 3 Zrotation Yrotation Xrotation
					End Site
					{
						OFFSET 0.000000 0.000000 0.000000
					}
				}
			}
		}
	}
	JOINT lowerback
	{
		OFFSET 0.004439 0.124404 -0.038385
		CHANNELS 3 Zrotation Yrotation Xrotation
		JOINT upperback
		{
			OFFSET 0.004488 0.137956 0.026820
			CHANNELS 3 Zrotation Yrotation Xrotation
			JOINT chest
			{
				OFFSET -0.002265 0.056032 0.002855
				CHANNELS 3 Zrotation Yrotation Xrotation
				JOINT lowerneck
				{
					OFFSET -0.013390 0.211636 -0.033468
					CHANNELS 3 Zrotation Yrotation Xrotation
					JOINT upperneck
					{
						OFFSET 0.010113 0.088937 0.050410
						CHANNELS 3 Zrotation Yrotation Xrotation
						End Site
						{
							OFFSET 0.000000 0.000000 0.000000
						}
					}
				}
				JOINT lclavicle
				{
					OFFSET 0.071702 0.114000 -0.018898
					CHANNELS 3 Zrotation Yrotation Xrotation
					JOINT lshoulder
					{
						OFFSET 0.122921 0.045205 -0.019046
						CHANNELS 3 Zrotation Yrotation Xrotation
						JOINT lelbow
						{
							OFFSET 0.255332 -0.015649 -0.022946
							CHANNELS 3 Zrotation Yrotation Xrotation
							JOINT lwrist
							{
								OFFSET 0.265709 0.012698 -0.007375
								CHANNELS 3 Zrotation Yrotation Xrotation
								End Site
								{
									OFFSET 0.000000 0.000000 0.000000
								}
							}
						}
					}
				}
				JOINT rclavicle
				{
					OFFSET -0.082954 0.112472 -0.023707
					CHANNELS 3 Zrotation Yrotation Xrotation
					JOINT rshoulder
					{
						OFFSET -0.113228 0.046853 -0.008472
						CHANNELS 3 Zrotation Yrotation Xrotation
						JOINT relbow
						{
							OFFSET -0.260127 -0.014369 -0.031269
							CHANNELS 3 Zrotation Yrotation Xrotation
							JOINT rwrist
							{
								OFFSET -0.269108 0.006794 -0.006027
								CHANNELS 3 Zrotation Yrotation Xrotation
								End Site
								{
									OFFSET 0.000000 0.000000 0.000000
								}
							}
						}
					}
				}
			}
		}
	}
}
MOTION
Frames: 11
Frame Time: 0.033333
1.061467 3.068058 0.976407 -44.421056 2.823356 82.567084 6.354018 8.847404 10.932985 -6.585401 6.050198 -1.994009 2.466132 14.946898 -15.424391 0.000000 -0.000000 0.000000 -2.761518 -1.291726 -11.858752 0.828351 -7.128228 35.899016 6.912230 -9.220126 -15.056916 0.000000 -0.000000 0.000000 -0.841084 -0.920615 11.862957 0.575677 -0.196940 4.149272 -0.736014 -2.555149 3.133998 2.197921 3.569833 -1.533126 -3.026466 -0.587603 18.429517 -23.041128 4.235816 2.185670 -58.018351 -8.108668 6.908611 9.694326 -25.837604 0.075440 1.180103 -4.261880 -13.642632 26.052597 -1.617679 -1.065786 59.224850 4.723931 15.135592 -18.319918 35.644546 -7.443741 7.011800 6.289133 -11.071024 
1.058990 3.068406 0.976229 -44.327067 2.745158 82.288913 6.421877 9.080064 11.369726 -6.382177 5.800195 -2.059125 2.632302 14.789467 -15.372905 0.000000 -0.000000 0.000000 -2.864989 -1.793443 -11.364186 -0.054552 -7.657292 35.814143 6.471506 -9.934023 -14.033687 0.000000 -0.000000 0.000000 -0.918428 -0.889203 11.839402 0.515151 -0.332692 4.153863 -0.815718 -2.600238 3.320468 1.929264 3.658589 -1.348664 -3.074197 -0.186293 19.009942 -23.057546 4.487201 2.246729 -57.718022 -8.354096 6.412216 9.581389 -25.837926 0.213074 0.841071 -4.298252 -13.459255 26.255634 -2.053888 -1.111080 59.054995 4.289430 15.315998 -18.715643 37.638648 -6.970707 7.830857 6.517962 -11.082857 
1.055772 3.068949 0.975889 -44.328396 2.623712 82.265133 6.428345 8.995854 11.529571 -6.276571 5.842973 -2.076306 2.610014 14.804409 -15.359639 0.000000 -0.000000 0.000000 -2.892780 -1.952092 -10.855573 -0.340022 -7.574205 35.033179 6.483989 -9.901492 -12.270155 0.000000 -0.000000 0.000000 -0.974450 -0.802793 11.454403 0.515101 -0.377914 4.205437 -0.849680 -2.577787 3.366509 1.672353 3.608665 -1.096783 -3.127246 0.028353 19.592558 -23.144777 4.747117 2.150448 -57.524068 -8.383910 6.215754 9.536356 -25.922892 0.039127 0.479787 -4.430956 -13.238584 26.343148 -2.532151 -1.159711 58.924959 3.929027 15.513315 -19.098911 39.347528 -6.819817 8.590248 6.688240 -11.041946 
1.050631 3.070323 0.975107 -44.311120 2.410078 82.544580 6.458510 8.823239 11.312786 -6.228912 6.058818 -1.879541 2.428468 14.724142 -15.392921 0.000000 -0.000000 0.000000 -2.748644 -1.992686 -10.215266 -0.343048 -7.002196 33.554334 6.672711 -9.419128 -11.833857 0.000000 -0.000000 0.000000 -1.027520 -0.613910 10.572254 0.565960 -0.455396 4.315897 -0.911930 -2.513085 3.324252 1.482404 3.632140 -0.807694 -3.245231 0.057445 20.198388 -23.275061 5.051386 2.120508 -57.394577 -8.370315 6.184476 9.620143 -26.279560 -0.360239 0.218737 -4.437503 -13.374951 26.460170 -3.038421 -1.150698 58.798970 3.663336 15.777545 -19.542037 41.187292 -6.482826 9.354339 6.811752 -11.341257 
1.047201 3.071428 0.974701 -44.326573 2.261500 82.711344 6.474201 8.690999 11.118175 -6.174733 6.242164 -1.658772 2.295053 14.681037 -15.449056 0.000000 -0.000000 0.000000 -2.598695 -2.016624 -9.764101 -0.417605 -6.847939 32.790896 6.592028 -9.284323 -12.344974 0.000000 -0.000000 0.000000 -1.003162 -0.507539 10.094897 0.563005 -0.471120 4.327802 -0.945865 -2.485484 3.290773 1.400399 3.646776 -0.727255 -3.334659 0.057716 20.454830 -23.381576 5.164135 2.097238 -57.380418 -8.351372 6.168109 9.774581 -26.490972 -0.629966 0.224702 -4.399444 -13.536595 26.476484 -3.136413 -1.097020 58.758992 3.639143 15.935549 -19.689910 42.014344 -6.180875 9.463227 6.901343 -11.422227 
1.042259 3.072980 0.974248 -44.314571 2.016169 82.801415 6.473192 8.480774 10.992420 -6.064081 6.404468 -1.330156 2.085457 14.662553 -15.535101 0.000000 -0.000000 0.000000 -2.436046 -2.097103 -8.908911 -0.511199 -6.880357 31.549417 6.299033 -9.188639 -13.124583 0.000000 -0.000000 0.000000 -0.869669 -0.360775 9.633096 0.457645 -0.496406 4.285882 -1.025633 -2.449915 3.293164 1.346234 3.671879 -0.755995 -3.345497 0.015161 20.742139 -23.363454 5.192179 2.080303 -57.596531 -8.398409 6.169559 10.079102 -26.648285 -1.025596 0.596201 -4.291465 -13.751058 26.421943 -3.089350 -1.068373 58.808012 3.697297 16.106619 -19.726295 42.847613 -5.654110 9.360622 6.993401 -11.479439 
1.036994 3.074751 0.973720 -44.339961 1.730214 82.830519 6.486919 8.309801 10.987419 -5.987339 6.576837 -1.061741 1.883947 14.619076 -15.619007 0.000000 -0.000000 0.000000 -2.274178 -2.268894 -8.163404 -0.567199 -7.038206 30.472835 5.868642 -9.323973 -13.909522 0.000000 -0.000000 0.000000 -0.705439 -0.219216 9.236855 0.357539 -0.478235 4.265148 -1.088167 -2.426347 3.299117 1.304891 3.649712 -0.874493 -3.414494 -0.041835 21.039845 -23.313037 5.179074 2.078791 -57.962036 -8.437816 6.225333 10.389413 -26.882301 -1.235024 0.637503 -4.293180 -14.027263 26.262261 -2.920922 -1.032457 58.935706 3.888439 16.246051 -19.815011 43.454537 -5.324931 9.442417 7.064108 -11.624080 
1.031794 3.077276 0.973310 -44.379767 1.461971 82.934431 6.523348 8.167319 10.849056 -5.870325 6.856608 -0.757461 1.618255 14.491030 -15.653431 0.000000 -0.000000 0.000000 -2.056128 -2.379301 -7.779475 -0.811078 -7.532930 29.819416 5.549849 -9.408414 -14.504796 0.000000 -0.000000 0.000000 -0.531586 -0.151277 8.906781 0.302861 -0.408082 4.206096 -1.112946 -2.397337 3.257443 1.314438 3.694194 -1.081098 -3.513440 -0.046016 21.303482 -23.321505 5.203319 2.034373 -58.387666 -8.474504 6.377561 10.669536 -27.189154 -1.342213 0.483274 -4.358580 -14.283576 26.162726 -2.699742 -1.005223 58.970528 4.252338 16.401995 -19.843221 43.835043 -5.155505 9.495912 7.145774 -11.941157 
1.026426 3.080135 0.973050 -44.361470 1.183345 82.836819 6.587412 8.078746 10.834122 -5.694037 7.033604 -0.277324 1.310150 14.382632 -15.734215 0.000000 -0.000000 0.000000 -1.815454 -2.385086 -7.270423 -1.054350 -7.876888 29.317982 5.257587 -9.561607 -15.017112 0.000000 -0.000000 0.000000 -0.348859 -0.167277 8.854839 0.232787 -0.360772 4.138178 -1.138820 -2.379170 3.271726 1.388769 3.722485 -1.343883 -3.582236 -0.035427 21.518586 -23.277834 5.227971 1.966799 -58.924485 -8.488386 6.543928 10.976469 -27.625008 -1.356847 0.449284 -4.391733 -14.604529 26.026443 -2.395199 -1.105664 59.072406 4.703639 16.589002 -19.733736 43.983693 -4.951960 9.281678 7.240566 -12.103422 
1.019999 3.084177 0.972573 -44.250266 0.724383 82.693713 6.524487 7.909912 10.613612 -5.436762 7.202975 0.668132 0.992572 14.349395 -15.953999 0.000000 -0.000000 0.000000 -1.617553 -2.310711 -6.667095 -1.248459 -7.838213 28.763257 4.844975 -9.838420 -15.824425 0.000000 -0.000000 0.000000 -0.153540 -0.166353 8.918465 0.152198 -0.367611 3.976488 -1.181020 -2.420283 3.326628 1.466554 3.706433 -1.627193 -3.686082 -0.009540 21.751529 -23.249498 5.218623 1.949526 -59.536351 -8.458403 6.779204 11.243316 -28.332890 -1.181435 0.513903 -4.527597 -14.989376 25.806898 -2.114407 -1.296527 59.241361 5.235613 16.839276 -19.547557 44.239414 -4.545034 9.034735 7.272235 -12.118875 
1.014981 3.087585 0.972010 -43.987721 0.352610 82.525598 6.496484 7.625647 10.289638 -5.246823 7.363376 1.769904 0.726147 14.265217 -16.246223 0.000000 -0.000000 0.000000 -1.593070 -2.470753 -5.867316 -1.242585 -7.868352 27.951404 4.445586 -9.876669 -16.512645 0.000000 -0.000000 0.000000 0.048345 -0.063251 8.965625 0.133516 -0.495689 3.995254 -1.215093 -2.458617 3.387275 1.539713 3.623027 -1.849028 -3.715155 -0.129649 21.863613 -23.253589 5.047178 1.950980 -59.957546 -8.479583 7.029131 11.296828 -28.989542 -0.893309 0.616646 -4.579576 -15.237118 25.651979 -1.889732 -1.385235 59.320892 5.477425 16.900860 -19.652950 44.728695 -4.464297 8.849760 7.339740 -12.305971 
